<svg xmlns="http://www.w3.org/2000/svg" viewBox="0 0 800 450">
  <defs>
    <linearGradient id="bg" x1="0%" y1="0%" x2="100%" y2="100%">
      <stop offset="0%" style="stop-color:#6a1b9a"/>
      <stop offset="100%" style="stop-color:#4a148c"/>
    </linearGradient>
  </defs>
  <rect width="800" height="450" fill="url(#bg)"/>
  <!-- Confetti dots -->
  <circle cx="150" cy="80" r="8" fill="#ffeb3b" opacity="0.7"/>
  <circle cx="650" cy="100" r="6" fill="#e91e63" opacity="0.7"/>
  <circle cx="250" cy="120" r="5" fill="#4caf50" opacity="0.7"/>
  <circle cx="550" cy="70" r="7" fill="#2196f3" opacity="0.7"/>
  <circle cx="350" cy="90" r="4" fill="#ff9800" opacity="0.7"/>
  <circle cx="700" cy="200" r="6" fill="#ffeb3b" opacity="0.5"/>
  <circle cx="100" cy="250" r="5" fill="#e91e63" opacity="0.5"/>
  <!-- Mask icon -->
  <g transform="translate(400,185)">
    <path d="M-55,-20 Q-55,-50 0,-55 Q55,-50 55,-20 Q55,10 30,25 L15,20 Q0,30 -15,20 L-30,25 Q-55,10 -55,-20Z" fill="#ce93d8" stroke="#e1bee7" stroke-width="3"/>
    <!-- Eye holes -->
    <ellipse cx="-22" cy="-15" rx="15" ry="12" fill="#4a148c"/>
    <ellipse cx="22" cy="-15" rx="15" ry="12" fill="#4a148c"/>
    <!-- Decorative elements -->
    <circle cx="0" cy="-45" r="5" fill="#ffeb3b"/>
    <circle cx="-15" cy="-42" r="3" fill="#e91e63"/>
    <circle cx="15" cy="-42" r="3" fill="#4caf50"/>
  </g>
  <!-- Stars -->
  <text x="300" y="140" font-size="20" fill="#ffeb3b" opacity="0.6">&#x2605;</text>
  <text x="500" y="130" font-size="16" fill="#e1bee7" opacity="0.6">&#x2605;</text>
  <text x="400" y="310" text-anchor="middle" font-family="Arial, sans-serif" font-size="28" font-weight="bold" fill="#e1bee7">פורים באמסטלפין</text>
  <text x="400" y="345" text-anchor="middle" font-family="Arial, sans-serif" font-size="18" fill="#ce93d8">Purim in Amstelveen</text>
</svg>