<svg xmlns="http://www.w3.org/2000/svg" viewBox="0 0 200 200" width="200" height="200">
  <!-- Green background circle -->
  <circle cx="100" cy="100" r="100" fill="#2d8a4e"/>
  <!-- City skyline silhouette -->
  <g fill="#ffffff">
    <!-- Building 1 - leftmost, short -->
    <rect x="30" y="95" width="18" height="40" rx="1"/>
    <rect x="33" y="99" width="4" height="4" rx="0.5" fill="#2d8a4e"/>
    <rect x="40" y="99" width="4" height="4" rx="0.5" fill="#2d8a4e"/>
    <rect x="33" y="107" width="4" height="4" rx="0.5" fill="#2d8a4e"/>
    <rect x="40" y="107" width="4" height="4" rx="0.5" fill="#2d8a4e"/>
    <rect x="33" y="115" width="4" height="4" rx="0.5" fill="#2d8a4e"/>
    <rect x="40" y="115" width="4" height="4" rx="0.5" fill="#2d8a4e"/>
    <!-- Building 2 - tall tower -->
    <rect x="52" y="65" width="22" height="70" rx="1"/>
    <rect x="55" y="70" width="4" height="4" rx="0.5" fill="#2d8a4e"/>
    <rect x="63" y="70" width="4" height="4" rx="0.5" fill="#2d8a4e"/>
    <rect x="55" y="78" width="4" height="4" rx="0.5" fill="#2d8a4e"/>
    <rect x="63" y="78" width="4" height="4" rx="0.5" fill="#2d8a4e"/>
    <rect x="55" y="86" width="4" height="4" rx="0.5" fill="#2d8a4e"/>
    <rect x="63" y="86" width="4" height="4" rx="0.5" fill="#2d8a4e"/>
    <rect x="55" y="94" width="4" height="4" rx="0.5" fill="#2d8a4e"/>
    <rect x="63" y="94" width="4" height="4" rx="0.5" fill="#2d8a4e"/>
    <rect x="55" y="102" width="4" height="4" rx="0.5" fill="#2d8a4e"/>
    <rect x="63" y="102" width="4" height="4" rx="0.5" fill="#2d8a4e"/>
    <!-- Antenna -->
    <line x1="63" y1="65" x2="63" y2="55" stroke="#ffffff" stroke-width="2"/>
    <circle cx="63" cy="53" r="2" fill="#ffffff"/>
    <!-- Building 3 - center, tallest -->
    <rect x="78" y="55" width="24" height="80" rx="1"/>
    <rect x="81" y="60" width="4" height="5" rx="0.5" fill="#2d8a4e"/>
    <rect x="90" y="60" width="4" height="5" rx="0.5" fill="#2d8a4e"/>
    <rect x="81" y="69" width="4" height="5" rx="0.5" fill="#2d8a4e"/>
    <rect x="90" y="69" width="4" height="5" rx="0.5" fill="#2d8a4e"/>
    <rect x="81" y="78" width="4" height="5" rx="0.5" fill="#2d8a4e"/>
    <rect x="90" y="78" width="4" height="5" rx="0.5" fill="#2d8a4e"/>
    <rect x="81" y="87" width="4" height="5" rx="0.5" fill="#2d8a4e"/>
    <rect x="90" y="87" width="4" height="5" rx="0.5" fill="#2d8a4e"/>
    <rect x="81" y="96" width="4" height="5" rx="0.5" fill="#2d8a4e"/>
    <rect x="90" y="96" width="4" height="5" rx="0.5" fill="#2d8a4e"/>
    <!-- Spire -->
    <polygon points="86,55 94,55 90,42" fill="#ffffff"/>
    <!-- Building 4 - medium -->
    <rect x="106" y="80" width="20" height="55" rx="1"/>
    <rect x="109" y="84" width="4" height="4" rx="0.5" fill="#2d8a4e"/>
    <rect x="117" y="84" width="4" height="4" rx="0.5" fill="#2d8a4e"/>
    <rect x="109" y="92" width="4" height="4" rx="0.5" fill="#2d8a4e"/>
    <rect x="117" y="92" width="4" height="4" rx="0.5" fill="#2d8a4e"/>
    <rect x="109" y="100" width="4" height="4" rx="0.5" fill="#2d8a4e"/>
    <rect x="117" y="100" width="4" height="4" rx="0.5" fill="#2d8a4e"/>
    <rect x="109" y="108" width="4" height="4" rx="0.5" fill="#2d8a4e"/>
    <rect x="117" y="108" width="4" height="4" rx="0.5" fill="#2d8a4e"/>
    <!-- Building 5 - right, short-medium -->
    <rect x="130" y="90" width="22" height="45" rx="1"/>
    <rect x="133" y="94" width="4" height="4" rx="0.5" fill="#2d8a4e"/>
    <rect x="142" y="94" width="4" height="4" rx="0.5" fill="#2d8a4e"/>
    <rect x="133" y="102" width="4" height="4" rx="0.5" fill="#2d8a4e"/>
    <rect x="142" y="102" width="4" height="4" rx="0.5" fill="#2d8a4e"/>
    <rect x="133" y="110" width="4" height="4" rx="0.5" fill="#2d8a4e"/>
    <rect x="142" y="110" width="4" height="4" rx="0.5" fill="#2d8a4e"/>
    <!-- Building 6 - far right, short -->
    <rect x="156" y="100" width="16" height="35" rx="1"/>
    <rect x="159" y="104" width="4" height="4" rx="0.5" fill="#2d8a4e"/>
    <rect x="165" y="104" width="4" height="4" rx="0.5" fill="#2d8a4e"/>
    <rect x="159" y="112" width="4" height="4" rx="0.5" fill="#2d8a4e"/>
    <rect x="165" y="112" width="4" height="4" rx="0.5" fill="#2d8a4e"/>
  </g>
  <!-- Ground line -->
  <line x1="25" y1="135" x2="175" y2="135" stroke="#ffffff" stroke-width="2.5" stroke-linecap="round"/>
</svg>