<svg xmlns="http://www.w3.org/2000/svg" viewBox="0 0 200 200" width="200" height="200">
  <!-- Warm orange to teal gradient background circle -->
  <defs>
    <linearGradient id="communityGrad" x1="0" y1="0" x2="1" y2="1">
      <stop offset="0%" stop-color="#e8882f"/>
      <stop offset="100%" stop-color="#2a9d8f"/>
    </linearGradient>
  </defs>
  <circle cx="100" cy="100" r="100" fill="url(#communityGrad)"/>
  <!-- Center person (head + body) -->
  <circle cx="100" cy="72" r="14" fill="#ffffff"/>
  <path d="M78 105 Q78 88 100 88 Q122 88 122 105 L122 112 L78 112 Z" fill="#ffffff"/>
  <!-- Left person -->
  <circle cx="58" cy="82" r="12" fill="#ffffff" opacity="0.85"/>
  <path d="M40 112 Q40 98 58 98 Q76 98 76 112 L76 118 L40 118 Z" fill="#ffffff" opacity="0.85"/>
  <!-- Right person -->
  <circle cx="142" cy="82" r="12" fill="#ffffff" opacity="0.85"/>
  <path d="M124 112 Q124 98 142 98 Q160 98 160 112 L160 118 L124 118 Z" fill="#ffffff" opacity="0.85"/>
  <!-- Connection lines -->
  <line x1="72" y1="92" x2="86" y2="85" stroke="#ffffff" stroke-width="2.5" opacity="0.6"/>
  <line x1="128" y1="92" x2="114" y2="85" stroke="#ffffff" stroke-width="2.5" opacity="0.6"/>
  <!-- Small connection dots -->
  <circle cx="79" cy="88" r="2" fill="#ffffff" opacity="0.6"/>
  <circle cx="121" cy="88" r="2" fill="#ffffff" opacity="0.6"/>
  <!-- Heart/community symbol below -->
  <path d="M92 128 Q92 122 96 122 Q100 122 100 127 Q100 122 104 122 Q108 122 108 128 Q108 134 100 140 Q92 134 92 128 Z" fill="#ffffff" opacity="0.7"/>
</svg>